Coordinates
nRows=5
nColumns=24

# SIMM Motion File Header:
name Coordinates
datacolumns 24
datarows 5
otherdata 1
range 0.21332999999999999000 0.21733000000000000000
endheader
time	pelvis_tx	pelvis_ty	pelvis_tz	pelvis_tilt	pelvis_list	pelvis_rotation	hip_flexion_r	hip_adduction_r	hip_rotation_r	knee_angle_r	ankle_angle_r	subtalar_angle_r	mtp_angle_r	hip_flexion_l	hip_adduction_l	hip_rotation_l	knee_angle_l	ankle_angle_l	subtalar_angle_l	mtp_angle_l	lumbar_extension	lumbar_bending	lumbar_rotation
      0.21332999999999999000	      0.70648384051336410000	      0.86730902996068238000	     -0.32037174155776921000	     -6.32034354814028990000	      5.14057938595392280000	      4.52746853090465610000	     12.59377876368660800000	     -7.86455291522083580000	      3.52663421106602430000	    -60.20688849990605700000	    -18.20859139412706900000	      0.00000000000000011223	     -0.00000000000000165121	     19.66751122019616100000	      9.24780515642600240000	     10.42352857677833600000	    -19.05439373317440800000	      3.11226109671139240000	     -0.00000000000000648785	     -0.00000000000001559009	     -0.89957653915293512000	     -5.27276328728952050000	     -0.35019951169301172000
      0.21432999999999999000	      0.70746581736490655000	      0.86750785752375947000	     -0.32053991558789163000	     -6.32825265375359260000	      5.10860081102841600000	      4.53106970925388720000	     12.78564035776159000000	     -7.83123252962060690000	      3.53854634058002480000	    -60.30618209833554700000	    -18.01734279824977100000	      0.00000000000000011700	     -0.00000000000000168656	     19.58142919389661800000	      9.21242927074813170000	     10.38197384834011300000	    -19.01917643366068200000	      3.16090232015527710000	     -0.00000000000000681552	     -0.00000000000001592957	     -0.90674073585297732000	     -5.22486134587231190000	     -0.37067168512539150000
      0.21532999999999999000	      0.70844669872059307000	      0.86770582738112423000	     -0.32070998091740399000	     -6.33648778302038720000	      5.07763475381041120000	      4.53628782363911660000	     12.97696251661411400000	     -7.79997706312942100000	      3.54743577384434210000	    -60.40150064116251400000	    -17.83700848213785400000	      0.00000000000000012624	     -0.00000000000000173230	     19.49620036787445800000	      9.17919234437103700000	     10.34220544610913000000	    -18.98541219845640500000	      3.21069351207094480000	     -0.00000000000000714502	     -0.00000000000001627120	     -0.91381076796854876000	     -5.17826921929200880000	     -0.39249510145610367000
      0.21632999999999999000	      0.70942609734295359000	      0.86790263591148353000	     -0.32088260284676379000	     -6.34516293117424810000	      5.04803929928580960000	      4.54369330820976280000	     13.16755291391475100000	     -7.77151669557450120000	      3.55223354754983940000	    -60.49143466898736700000	    -17.67145263101998200000	      0.00000000000000014150	     -0.00000000000000179211	     19.41212439524129300000	      9.14885027711539140000	     10.30485339729194600000	    -18.95361373740784200000	      3.26205915208401940000	     -0.00000000000000747700	     -0.00000000000001661592	     -0.92075458348226102000	     -5.13345032843889640000	     -0.41614583341258193000
      0.21733000000000000000	      0.71040549596531410000	      0.86809944444184284000	     -0.32105522477612364000	     -6.35383807932811000000	      5.01844384476120720000	      4.55109879278040810000	     13.35814331121538800000	     -7.74305632801958140000	      3.55703132125533730000	    -60.58136869681222000000	    -17.50589677990210900000	      0.00000000000000015677	     -0.00000000000000185192	     19.32804842260812400000	      9.11850820985974590000	     10.26750134847476300000	    -18.92181527635927900000	      3.31342479209709450000	     -0.00000000000000780898	     -0.00000000000001696065	     -0.92769839899597328000	     -5.08863143758578310000	     -0.43979656536906020000
